<svg xmlns="http://www.w3.org/2000/svg" viewBox="0 0 64 64"><linearGradient id="a" x1="32.001" x2="32.001" y1="60" y2="4.005" gradientUnits="userSpaceOnUse"><stop offset="0" stop-color="#8d00f5"/><stop offset="1" stop-color="#020659"/></linearGradient><path fill="url(#a)" d="M40.12 34.025a13.032 13.032 0 0 1-5.112-1.742 12.82 12.82 0 0 1-1.221-.82c-.086-.065-.167-.138-.251-.206a13.132 13.132 0 0 1-.89-.782 13.705 13.705 0 0 1-.322-.317c-.262-.27-.505-.553-.741-.842-.093-.114-.196-.223-.284-.339a12.596 12.596 0 0 1-.764-1.136c-3.033-5.087-2.159-11.839 2.194-16.191l.54-.54c.39-.39.39-1.03 0-1.42a1.003 1.003 0 0 0-.709-.29c-.25 0-.5.1-.7.29l-.517.517c-4.816 4.816-5.917 12.169-2.913 17.935l-2.436 4.384-13.337 13.337a1.002 1.002 0 0 0-1.414 0l-6.364 6.364A2.982 2.982 0 0 0 4 54.349c0 .802.312 1.556.879 2.121l1.414 1.415v.001a2.995 2.995 0 0 0 2.121.876c.769 0 1.537-.292 2.121-.877l6.364-6.364a.999.999 0 0 0 0-1.414l-.003-.003 3.229-3.229a.998.998 0 0 0-1.41-1.41L15.49 48.69l-.925-.919-.493-.493L26.799 34.55l1.41 1.41-6.675 6.684a.998.998 0 0 0 1.41 1.41l7.279-7.279 4.378-2.432a14.939 14.939 0 0 0 5.298 1.66c.584.068 1.101-.368 1.101-.954v-.065c0-.5-.384-.9-.88-.959zM14.778 50.813 9.121 56.47a1 1 0 0 1-1.414-.001l-1.414-1.415a.993.993 0 0 1 0-1.412l5.657-5.657 2.828 2.828zm15.023-16.089-1.469-1.469-.292-.293 1.592-2.866.071.088c.03.04.064.078.095.117.243.313.501.616.77.911.046.05.084.105.131.155s.098.092.145.142c.067.07.129.144.198.213.147.147.302.283.454.423.084.078.166.159.252.235.298.262.603.515.92.751l-2.867 1.593zM35.51 8.68c.22 0 .44-.07.63-.2C38.4 6.83 41.09 6 43.77 6c3.33 0 6.66 1.27 9.19 3.8a12.92 12.92 0 0 1 3.8 9.19c0 3.48-1.35 6.74-3.8 9.2l-2.12 2.12a12.99 12.99 0 0 1-7.01 3.616c-.473.08-.83.472-.83.952v.077a.972.972 0 0 0 1.144.949 14.846 14.846 0 0 0 8.106-4.184l2.13-2.12c3.69-3.69 5.2-8.97 3.95-14.29-.31-1.32-.82-2.6-1.51-3.76-4.8-8.12-14.99-9.69-21.87-4.69-.5.37-.58 1.09-.13 1.54.19.19.44.28.69.28zm-2.376 5.471-.005.004a10.91 10.91 0 0 0-2.365 5.419l.001.006a11.106 11.106 0 0 0 .259 4.384 10.999 10.999 0 0 0 7.78 7.777c.921.244 1.881.367 2.838.367.474 0 .945-.04 1.411-.101h.002c.045 0 .09-.003.135-.009a10.9 10.9 0 0 0 5.419-2.366l.003-.004.004-.002c.278-.23.547-.47.811-.733l2.121-2.121c.262-.261.5-.53.731-.807l.004-.007.005-.004a10.913 10.913 0 0 0 2.362-5.403l.002-.008V20.534a11.123 11.123 0 0 0-.26-4.388 11 11 0 0 0-7.78-7.778 11.139 11.139 0 0 0-4.38-.256l-.006-.001a10.9 10.9 0 0 0-5.419 2.366l-.003.004-.004.002c-.278.231-.55.471-.811.733l-2.121 2.121c-.263.262-.503.531-.733.81.001.001 0 .002-.001.004zm1.482 12.581a9.024 9.024 0 0 1-1.497-2.745l.751-.751 2.121 2.121-1.375 1.375zm11.982-4.91-2.121 2.121-2.121-2.121 1.061-1.061 1.061-1.061 1.061 1.061 1.059 1.061zm-.707-3.536 2.121-2.121 1.061 1.061 1.061 1.061-2.122 2.122-1.061-1.061-1.06-1.062zm-3.889 1.061-1.061 1.061-2.122-2.122 1.061-1.061 1.061-1.061 2.121 2.121-1.06 1.062zm-2.475 2.475-1.061 1.061-1.061 1.061-2.121-2.121 1.061-1.061 1.061-1.061 2.121 2.121zm-.752 7.822a8.988 8.988 0 0 1-2.744-1.497l1.374-1.375 1.061 1.061 1.061 1.061-.752.75zm2.166-2.165-1.061-1.061-1.061-1.061 1.061-1.061 1.061-1.061 2.121 2.121-2.121 2.123zm2.459 2.459-1.045-1.045 2.121-2.121 1.962 1.962a8.885 8.885 0 0 1-3.038 1.204zm4.613-2.459-2.122-2.121 2.121-2.121 1.088 1.088 1.034 1.034-2.121 2.12zm3.376-3.695-1.061-1.06-.902-.902 2.122-2.122 1.045 1.045a8.894 8.894 0 0 1-1.204 3.039zm-1.294-9.702.706-.706a9.013 9.013 0 0 1 1.497 2.745l-.751.751-1.061-1.061-1.061-1.061.67-.668zm-3.453-3.618a9.006 9.006 0 0 1 2.745 1.498l-1.375 1.375-1.061-1.061-1.061-1.061.752-.751zm-3.226 3.226 1.061-1.061 1.061 1.061 1.061 1.061-2.121 2.121-2.121-2.121 1.059-1.061zm-1.398-3.519.354.354.691.69-1.06 1.061-1.061 1.061-1.962-1.962a8.845 8.845 0 0 1 3.038-1.204zm-4.613 2.459 2.122 2.121-1.061 1.061-1.061 1.061-2.121-2.121 2.121-2.122zm-3.376 3.694 1.962 1.962-1.061 1.061-1.061 1.061-1.045-1.045a8.912 8.912 0 0 1 1.205-3.039zm25.882 33.539-.001-.002-.145-.576c-.244-.977-.943-1.721-1.874-2.064.434-1.082.215-2.366-.661-3.242s-2.16-1.095-3.242-.661c-.343-.931-1.087-1.629-2.064-1.874l-.576-.144a2.996 2.996 0 0 0-3.461 1.677l-4.188 7.465-1.316 1.317a3.97 3.97 0 0 0-1.172 2.828c0 1.068.416 2.072 1.172 2.828l1.414 1.414A3.976 3.976 0 0 0 46.625 60a3.97 3.97 0 0 0 2.828-1.172l1.317-1.316 7.465-4.188a2.99 2.99 0 0 0 1.676-3.461zm-10.257-5.95a.852.852 0 0 0 .047-.096 1.003 1.003 0 0 1 1.162-.577l.577.145h.001c.51.128.674.535.721.704s.115.602-.257.974l-5.987 5.988-.172-.172 3.908-6.966zm-1.615 13.501c-.756.756-2.072.756-2.828 0L43.797 56c-.378-.378-.586-.88-.586-1.414s.208-1.036.586-1.414l.707-.708.707.708L48.039 56l.708.707-.708.707zm.708-3.536-1.414-1.414 7.071-7.071a.999.999 0 1 1 1.414 1.414l-7.071 7.071zm8.647-2.368a.945.945 0 0 0-.096.047l-6.965 3.908-.172-.172 5.988-5.987a.977.977 0 0 1 .974-.257.983.983 0 0 1 .704.722l.144.576a1 1 0 0 1-.577 1.163z"/></svg>