<svg xmlns="http://www.w3.org/2000/svg" viewBox="0 0 32 32"><g data-name="Layer 2"><path fill="#171938" d="M29.911 10.871a7.024 7.024 0 0 0-4.694-5.507 6.857 6.857 0 0 0-3.4-.26 6.993 6.993 0 0 0-11.624 0 6.859 6.859 0 0 0-3.4.26A6.988 6.988 0 0 0 4.435 17.3 4.744 4.744 0 0 1 6 20.928v6.079A3 3 0 0 0 9 30h14a3 3 0 0 0 3-2.993v-6.079a4.743 4.743 0 0 1 1.564-3.628 6.983 6.983 0 0 0 2.347-6.429ZM23 28H9a1 1 0 0 1-1-.993V25h16v2.007A1 1 0 0 1 23 28Zm3.261-12.217A6.74 6.74 0 0 0 24 20.928V23H8v-2.072a6.741 6.741 0 0 0-2.262-5.146A4.993 4.993 0 0 1 10.4 7.2a1 1 0 0 0 1.167-.5 4.994 4.994 0 0 1 8.875 0 1 1 0 0 0 1.166.5 4.914 4.914 0 0 1 2.982.061 4.988 4.988 0 0 1 1.675 8.52Z"/><path fill="#4c46c8" d="M16 20a1 1 0 0 1-1-1v-7a1 1 0 0 1 2 0v7a1 1 0 0 1-1 1zm4 0a.948.948 0 0 1-.2-.02 1 1 0 0 1-.78-1.18l1-5a1 1 0 0 1 1.96.392l-1 5A1 1 0 0 1 20 20zm-8 0a1 1 0 0 1-.979-.8l-1-5a1 1 0 1 1 1.96-.392l1 5a1 1 0 0 1-.781 1.172.955.955 0 0 1-.2.02z"/></g></svg>